<?xml version="1.0" encoding="utf-8"?>
<!-- Generator: Adobe Illustrator 22.1.0, SVG Export Plug-In . SVG Version: 6.00 Build 0)  -->
<svg version="1.1" id="Layer_1" xmlns="http://www.w3.org/2000/svg" xmlns:xlink="http://www.w3.org/1999/xlink" x="0px" y="0px"
	 viewBox="0 0 595.3 841.9" style="enable-background:new 0 0 595.3 841.9;" xml:space="preserve">
<style type="text/css">
	.st0{fill:#C81517;}
	.st1{fill:#FFFFFF;}
</style>
<g>
	<polygon class="st0" points="521.3,644.9 74,644.9 74,197.6 106.5,197.6 521.3,197.6 521.3,644.9 	"/>
	<path class="st1" d="M70.9,194.5V648h453.5V194.5H148.1H70.9L70.9,194.5z M518.1,200.8c0,6.2,0,434.7,0,440.9
		c-6.2,0-434.7,0-440.9,0c0-6.2,0-434.7,0-440.9C83.4,200.8,511.9,200.8,518.1,200.8L518.1,200.8z"/>
	<path class="st1" d="M292.5,436h-23.8c-0.5,0-1,0.3-1.2,0.7l0,0c-2.9,5.1-9.5,13.4-21.9,13.4c-16.2,0-26.2-14.2-26.2-29
		c0-13.8,9.4-28.5,26.1-28.5c11.5,0,18.5,7.1,22.1,13.7c0,0.1,0.1,0.2,0.2,0.3c0.3,0.4,0.7,0.6,1.2,0.6h23.8c0.8,0,1.5-0.7,1.5-1.5
		c0-0.1,0-0.3-0.1-0.4c0-0.1,0-0.1-0.1-0.2c-4.7-15-20.7-34.5-48.5-34.5c-31.9,0-51.2,25.6-51.2,50.5c0,26.4,20.8,50.8,51.4,50.8
		c22,0,40.9-13.3,48-33.9c0,0,0-0.1,0-0.1c0-0.1,0.1-0.3,0.1-0.5C294,436.6,293.3,436,292.5,436L292.5,436z"/>
	<path class="st1" d="M398.4,436h-23.8c-0.5,0-1,0.3-1.2,0.7l0,0c-2.9,5.1-9.5,13.4-21.9,13.4c-16.2,0-26.2-14.2-26.2-29
		c0-13.8,9.4-28.5,26.1-28.5c11.5,0,18.5,7.1,22.1,13.7c0,0.1,0.1,0.2,0.1,0.3c0.3,0.4,0.7,0.6,1.2,0.6h23.8c0.8,0,1.5-0.7,1.5-1.5
		c0-0.1,0-0.3,0-0.4c0-0.1,0-0.1-0.1-0.2c-4.7-15-20.7-34.5-48.5-34.5c-31.9,0-51.2,25.6-51.2,50.5c0,26.4,20.8,50.8,51.4,50.8
		c22,0,40.9-13.3,48-33.9c0,0,0-0.1,0-0.1c0-0.1,0.1-0.3,0.1-0.5C399.8,436.6,399.2,436,398.4,436L398.4,436z"/>
	<path class="st1" d="M165,456.8c-0.2-0.5-0.8-0.9-1.4-0.9h-31.8c-0.6,0-1.1,0.4-1.4,0.9l-4.5,12.3l0,0c-0.2,0.5-0.7,0.9-1.3,0.9
		h-23.6c-0.8,0-1.5-0.7-1.5-1.5c0-0.2,0-0.4,0.1-0.5l0-0.1l38-94.6l0-0.1c0.2-0.5,0.7-0.9,1.3-0.9h17.7c0.6,0,1.1,0.3,1.3,0.8
		l0.1,0.2l37.5,94.5l0.1,0.2c0,0.1,0.1,0.3,0.1,0.4c0,0.8-0.7,1.5-1.5,1.5h-23.8c-0.6,0-1.1-0.4-1.4-0.9l0,0L165,456.8L165,456.8z
		 M157.8,435.1l-0.1-0.2l-9-30.1c-0.1-0.4-0.5-0.7-0.9-0.7c-0.4,0-0.7,0.3-0.8,0.7l-9,30.2l0,0.1c0,0.1,0,0.1,0,0.2
		c0,0.5,0.4,0.9,0.9,0.9h18.1c0.5,0,0.9-0.4,0.9-0.9C157.8,435.2,157.8,435.2,157.8,435.1L157.8,435.1z"/>
	<path class="st1" d="M464.9,456.8c-0.2-0.5-0.7-0.9-1.4-0.9h-31.8c-0.6,0-1.1,0.4-1.4,0.9l-4.5,12.3v0c-0.2,0.5-0.7,0.9-1.3,0.9
		h-23.6c-0.8,0-1.5-0.7-1.5-1.5c0-0.2,0-0.4,0.1-0.5l0-0.1l38-94.6l0-0.1c0.2-0.5,0.7-0.9,1.3-0.9h17.7c0.6,0,1.1,0.3,1.3,0.8
		l0.1,0.2l37.5,94.5l0.1,0.2c0,0.1,0.1,0.3,0.1,0.4c0,0.8-0.7,1.5-1.5,1.5h-23.8c-0.6,0-1.1-0.4-1.4-0.9l0,0L464.9,456.8
		L464.9,456.8z M457.7,435.1l-0.1-0.2l-9-30.1c-0.1-0.4-0.5-0.7-0.9-0.7c-0.4,0-0.7,0.3-0.8,0.7l-9,30.2l0,0.1c0,0.1,0,0.1,0,0.2
		c0,0.5,0.4,0.9,0.9,0.9h18.1c0.5,0,0.9-0.4,0.9-0.9C457.7,435.2,457.7,435.2,457.7,435.1L457.7,435.1z"/>
</g>
</svg>
